<mxfile host="Electron" agent="Mozilla/5.0 (Windows NT 10.0; Win64; x64) AppleWebKit/537.36 (KHTML, like Gecko) draw.io/28.0.4 Chrome/138.0.7204.97 Electron/37.2.1 Safari/537.36" version="28.0.4">
  <diagram name="Page-1" id="cUBMhIpkhsxSw8po6sKM">
    <mxGraphModel dx="1426" dy="841" grid="1" gridSize="10" guides="1" tooltips="1" connect="1" arrows="1" fold="1" page="1" pageScale="1" pageWidth="827" pageHeight="1169" math="0" shadow="0">
      <root>
        <mxCell id="0" />
        <mxCell id="1" parent="0" />
        <mxCell id="GI5wJ0wdJWHN-jridUN6-4" style="edgeStyle=orthogonalEdgeStyle;rounded=0;orthogonalLoop=1;jettySize=auto;html=1;exitX=0.5;exitY=1;exitDx=0;exitDy=0;entryX=0.5;entryY=0;entryDx=0;entryDy=0;fontSize=13;fontStyle=1" parent="1" source="GI5wJ0wdJWHN-jridUN6-1" target="GI5wJ0wdJWHN-jridUN6-3" edge="1">
          <mxGeometry relative="1" as="geometry" />
        </mxCell>
        <mxCell id="GI5wJ0wdJWHN-jridUN6-1" value="Start" style="ellipse;whiteSpace=wrap;html=1;fontSize=13;fontStyle=1" parent="1" vertex="1">
          <mxGeometry x="330" y="40" width="120" height="80" as="geometry" />
        </mxCell>
        <mxCell id="GI5wJ0wdJWHN-jridUN6-2" value="End" style="ellipse;whiteSpace=wrap;html=1;fontSize=13;fontStyle=1" parent="1" vertex="1">
          <mxGeometry x="330" y="760" width="120" height="80" as="geometry" />
        </mxCell>
        <mxCell id="GI5wJ0wdJWHN-jridUN6-6" style="edgeStyle=orthogonalEdgeStyle;rounded=0;orthogonalLoop=1;jettySize=auto;html=1;exitX=0.5;exitY=1;exitDx=0;exitDy=0;fontSize=13;fontStyle=1" parent="1" source="GI5wJ0wdJWHN-jridUN6-3" target="GI5wJ0wdJWHN-jridUN6-5" edge="1">
          <mxGeometry relative="1" as="geometry" />
        </mxCell>
        <mxCell id="GI5wJ0wdJWHN-jridUN6-3" value="Print Welcome and ask user to choose:&lt;div&gt;1. Convert Celsium to Fahrenheit&lt;/div&gt;&lt;div&gt;2. Convert Fahrenheit to Celsium&lt;/div&gt;" style="shape=parallelogram;perimeter=parallelogramPerimeter;whiteSpace=wrap;html=1;fixedSize=1;fontSize=13;fontStyle=1" parent="1" vertex="1">
          <mxGeometry x="230" y="160" width="320" height="60" as="geometry" />
        </mxCell>
        <mxCell id="GI5wJ0wdJWHN-jridUN6-5" value="Read user&#39;s choice" style="shape=parallelogram;perimeter=parallelogramPerimeter;whiteSpace=wrap;html=1;fixedSize=1;fontSize=13;fontStyle=1" parent="1" vertex="1">
          <mxGeometry x="275" y="250" width="230" height="60" as="geometry" />
        </mxCell>
        <mxCell id="GI5wJ0wdJWHN-jridUN6-10" value="1" style="edgeStyle=orthogonalEdgeStyle;rounded=0;orthogonalLoop=1;jettySize=auto;html=1;exitX=0;exitY=0.5;exitDx=0;exitDy=0;entryX=0.5;entryY=0;entryDx=0;entryDy=0;fontSize=13;fontStyle=1" parent="1" source="GI5wJ0wdJWHN-jridUN6-7" target="GI5wJ0wdJWHN-jridUN6-13" edge="1">
          <mxGeometry relative="1" as="geometry" />
        </mxCell>
        <mxCell id="GI5wJ0wdJWHN-jridUN6-7" value="Check" style="rhombus;whiteSpace=wrap;html=1;fontSize=13;fontStyle=1" parent="1" vertex="1">
          <mxGeometry x="320" y="350" width="140" height="80" as="geometry" />
        </mxCell>
        <mxCell id="GI5wJ0wdJWHN-jridUN6-8" style="edgeStyle=orthogonalEdgeStyle;rounded=0;orthogonalLoop=1;jettySize=auto;html=1;exitX=0.5;exitY=1;exitDx=0;exitDy=0;entryX=0.5;entryY=0;entryDx=0;entryDy=0;fontSize=13;fontStyle=1" parent="1" source="GI5wJ0wdJWHN-jridUN6-5" target="GI5wJ0wdJWHN-jridUN6-7" edge="1">
          <mxGeometry relative="1" as="geometry" />
        </mxCell>
        <mxCell id="GI5wJ0wdJWHN-jridUN6-23" style="edgeStyle=orthogonalEdgeStyle;rounded=0;orthogonalLoop=1;jettySize=auto;html=1;exitX=0.5;exitY=1;exitDx=0;exitDy=0;entryX=0.5;entryY=0;entryDx=0;entryDy=0;fontSize=13;fontStyle=1" parent="1" source="GI5wJ0wdJWHN-jridUN6-9" target="GI5wJ0wdJWHN-jridUN6-21" edge="1">
          <mxGeometry relative="1" as="geometry" />
        </mxCell>
        <mxCell id="GI5wJ0wdJWHN-jridUN6-9" value="F = C*9/5+32" style="rounded=1;whiteSpace=wrap;html=1;fontSize=13;fontStyle=1" parent="1" vertex="1">
          <mxGeometry x="105" y="570" width="180" height="60" as="geometry" />
        </mxCell>
        <mxCell id="GI5wJ0wdJWHN-jridUN6-24" style="edgeStyle=orthogonalEdgeStyle;rounded=0;orthogonalLoop=1;jettySize=auto;html=1;exitX=0.5;exitY=1;exitDx=0;exitDy=0;entryX=0.5;entryY=0;entryDx=0;entryDy=0;fontSize=13;fontStyle=1" parent="1" source="GI5wJ0wdJWHN-jridUN6-11" target="GI5wJ0wdJWHN-jridUN6-22" edge="1">
          <mxGeometry relative="1" as="geometry" />
        </mxCell>
        <mxCell id="GI5wJ0wdJWHN-jridUN6-11" value="C = (F-32)*5/9" style="rounded=1;whiteSpace=wrap;html=1;fontSize=13;fontStyle=1" parent="1" vertex="1">
          <mxGeometry x="512.5" y="570" width="145" height="60" as="geometry" />
        </mxCell>
        <mxCell id="GI5wJ0wdJWHN-jridUN6-12" value="" style="edgeStyle=orthogonalEdgeStyle;rounded=0;orthogonalLoop=1;jettySize=auto;html=1;exitX=0.5;exitY=1;exitDx=0;exitDy=0;entryX=0.5;entryY=0;entryDx=0;entryDy=0;fontSize=13;fontStyle=1" parent="1" source="GI5wJ0wdJWHN-jridUN6-19" target="GI5wJ0wdJWHN-jridUN6-11" edge="1">
          <mxGeometry relative="1" as="geometry" />
        </mxCell>
        <mxCell id="GI5wJ0wdJWHN-jridUN6-14" style="edgeStyle=orthogonalEdgeStyle;rounded=0;orthogonalLoop=1;jettySize=auto;html=1;exitX=0.5;exitY=1;exitDx=0;exitDy=0;entryX=0.5;entryY=0;entryDx=0;entryDy=0;fontSize=13;fontStyle=1" parent="1" source="GI5wJ0wdJWHN-jridUN6-13" target="GI5wJ0wdJWHN-jridUN6-9" edge="1">
          <mxGeometry relative="1" as="geometry" />
        </mxCell>
        <mxCell id="GI5wJ0wdJWHN-jridUN6-13" value="Read user&#39;s input on Celsius degree" style="shape=parallelogram;perimeter=parallelogramPerimeter;whiteSpace=wrap;html=1;fixedSize=1;fontSize=13;fontStyle=1" parent="1" vertex="1">
          <mxGeometry x="50" y="460" width="290" height="60" as="geometry" />
        </mxCell>
        <mxCell id="GI5wJ0wdJWHN-jridUN6-20" value="2" style="edgeStyle=orthogonalEdgeStyle;rounded=0;orthogonalLoop=1;jettySize=auto;html=1;exitX=1;exitY=0.5;exitDx=0;exitDy=0;entryX=0.5;entryY=0;entryDx=0;entryDy=0;fontSize=13;fontStyle=1" parent="1" source="GI5wJ0wdJWHN-jridUN6-7" target="GI5wJ0wdJWHN-jridUN6-19" edge="1">
          <mxGeometry relative="1" as="geometry">
            <mxPoint x="430" y="390" as="sourcePoint" />
            <mxPoint x="563" y="592" as="targetPoint" />
          </mxGeometry>
        </mxCell>
        <mxCell id="GI5wJ0wdJWHN-jridUN6-19" value="Read user&#39;s input on Fahrenheit degree" style="shape=parallelogram;perimeter=parallelogramPerimeter;whiteSpace=wrap;html=1;fixedSize=1;fontSize=13;fontStyle=1" parent="1" vertex="1">
          <mxGeometry x="445" y="460" width="280" height="60" as="geometry" />
        </mxCell>
        <mxCell id="GI5wJ0wdJWHN-jridUN6-26" style="edgeStyle=orthogonalEdgeStyle;rounded=0;orthogonalLoop=1;jettySize=auto;html=1;exitX=0.5;exitY=1;exitDx=0;exitDy=0;entryX=0;entryY=0.5;entryDx=0;entryDy=0;fontSize=13;fontStyle=1" parent="1" source="GI5wJ0wdJWHN-jridUN6-21" target="GI5wJ0wdJWHN-jridUN6-2" edge="1">
          <mxGeometry relative="1" as="geometry" />
        </mxCell>
        <mxCell id="GI5wJ0wdJWHN-jridUN6-21" value="Output result" style="shape=parallelogram;perimeter=parallelogramPerimeter;whiteSpace=wrap;html=1;fixedSize=1;fontSize=13;fontStyle=1" parent="1" vertex="1">
          <mxGeometry x="100" y="670" width="190" height="60" as="geometry" />
        </mxCell>
        <mxCell id="GI5wJ0wdJWHN-jridUN6-25" style="edgeStyle=orthogonalEdgeStyle;rounded=0;orthogonalLoop=1;jettySize=auto;html=1;exitX=0.5;exitY=1;exitDx=0;exitDy=0;entryX=1;entryY=0.5;entryDx=0;entryDy=0;fontSize=13;fontStyle=1" parent="1" source="GI5wJ0wdJWHN-jridUN6-22" target="GI5wJ0wdJWHN-jridUN6-2" edge="1">
          <mxGeometry relative="1" as="geometry" />
        </mxCell>
        <mxCell id="GI5wJ0wdJWHN-jridUN6-22" value="Output result" style="shape=parallelogram;perimeter=parallelogramPerimeter;whiteSpace=wrap;html=1;fixedSize=1;fontSize=13;fontStyle=1" parent="1" vertex="1">
          <mxGeometry x="490" y="670" width="190" height="60" as="geometry" />
        </mxCell>
      </root>
    </mxGraphModel>
  </diagram>
</mxfile>
